<svg xmlns="http://www.w3.org/2000/svg" viewBox="0 0 320.00 320.00">
  <style>
    .key-bg { fill: #f5f5f5; stroke: #d4d4d4; stroke-width: 1; }
    .key-index { fill: #171717; font-family: ui-monospace, SFMono-Regular, "SF Mono", Menlo, Consolas, "Liberation Mono", monospace; font-weight: 700; text-anchor: middle; dominant-baseline: central; }
    .key-part { font-family: system-ui, -apple-system, BlinkMacSystemFont, "Segoe UI", Roboto, sans-serif; text-anchor: middle; dominant-baseline: central; }
    @media (prefers-color-scheme: dark) {
      .key-bg { fill: #2a2a2a; stroke: #404040; }
      .key-index { fill: #e5e5e5; }
    }
  </style>
  <g>
    <path class="key-bg" d="M 26.00,22.00 L 84.00,22.00 Q 88.00,22.00 88.00,26.00 L 88.00,84.00 Q 88.00,88.00 84.00,88.00 L 26.00,88.00 Q 22.00,88.00 22.00,84.00 L 22.00,26.00 Q 22.00,22.00 26.00,22.00 Z" />
    <path class="key-bg" d="M 96.00,22.00 L 154.00,22.00 Q 158.00,22.00 158.00,26.00 L 158.00,84.00 Q 158.00,88.00 154.00,88.00 L 96.00,88.00 Q 92.00,88.00 92.00,84.00 L 92.00,26.00 Q 92.00,22.00 96.00,22.00 Z" />
    <path class="key-bg" d="M 166.00,22.00 L 224.00,22.00 Q 228.00,22.00 228.00,26.00 L 228.00,84.00 Q 228.00,88.00 224.00,88.00 L 166.00,88.00 Q 162.00,88.00 162.00,84.00 L 162.00,26.00 Q 162.00,22.00 166.00,22.00 Z" />
    <path class="key-bg" d="M 236.00,92.00 L 294.00,92.00 Q 298.00,92.00 298.00,96.00 L 298.00,154.00 Q 298.00,158.00 294.00,158.00 L 236.00,158.00 Q 232.00,158.00 232.00,154.00 L 232.00,96.00 Q 232.00,92.00 236.00,92.00 Z" />
    <path class="key-bg" d="M 236.00,162.00 L 294.00,162.00 Q 298.00,162.00 298.00,166.00 L 298.00,224.00 Q 298.00,228.00 294.00,228.00 L 236.00,228.00 Q 232.00,228.00 232.00,224.00 L 232.00,166.00 Q 232.00,162.00 236.00,162.00 Z" />
    <path class="key-bg" d="M 236.00,22.00 L 294.00,22.00 Q 298.00,22.00 298.00,26.00 L 298.00,84.00 Q 298.00,88.00 294.00,88.00 L 236.00,88.00 Q 232.00,88.00 232.00,84.00 L 232.00,26.00 Q 232.00,22.00 236.00,22.00 Z" />
    <path class="key-bg" d="M 26.00,162.00 L 84.00,162.00 Q 88.00,162.00 88.00,166.00 L 88.00,224.00 Q 88.00,228.00 84.00,228.00 L 26.00,228.00 Q 22.00,228.00 22.00,224.00 L 22.00,166.00 Q 22.00,162.00 26.00,162.00 Z" />
    <path class="key-bg" d="M 96.00,162.00 L 154.00,162.00 Q 158.00,162.00 158.00,166.00 L 158.00,224.00 Q 158.00,228.00 154.00,228.00 L 96.00,228.00 Q 92.00,228.00 92.00,224.00 L 92.00,166.00 Q 92.00,162.00 96.00,162.00 Z" />
    <path class="key-bg" d="M 166.00,232.00 L 224.00,232.00 Q 228.00,232.00 228.00,236.00 L 228.00,294.00 Q 228.00,298.00 224.00,298.00 L 166.00,298.00 Q 162.00,298.00 162.00,294.00 L 162.00,236.00 Q 162.00,232.00 166.00,232.00 Z" />
    <path class="key-bg" d="M 26.00,92.00 L 84.00,92.00 Q 88.00,92.00 88.00,96.00 L 88.00,154.00 Q 88.00,158.00 84.00,158.00 L 26.00,158.00 Q 22.00,158.00 22.00,154.00 L 22.00,96.00 Q 22.00,92.00 26.00,92.00 Z" />
    <path class="key-bg" d="M 96.00,92.00 L 154.00,92.00 Q 158.00,92.00 158.00,96.00 L 158.00,154.00 Q 158.00,158.00 154.00,158.00 L 96.00,158.00 Q 92.00,158.00 92.00,154.00 L 92.00,96.00 Q 92.00,92.00 96.00,92.00 Z" />
    <path class="key-bg" d="M 166.00,92.00 L 224.00,92.00 Q 228.00,92.00 228.00,96.00 L 228.00,154.00 Q 228.00,158.00 224.00,158.00 L 166.00,158.00 Q 162.00,158.00 162.00,154.00 L 162.00,96.00 Q 162.00,92.00 166.00,92.00 Z" />
    <path class="key-bg" d="M 26.00,232.00 L 84.00,232.00 Q 88.00,232.00 88.00,236.00 L 88.00,294.00 Q 88.00,298.00 84.00,298.00 L 26.00,298.00 Q 22.00,298.00 22.00,294.00 L 22.00,236.00 Q 22.00,232.00 26.00,232.00 Z" />
    <path class="key-bg" d="M 96.00,232.00 L 154.00,232.00 Q 158.00,232.00 158.00,236.00 L 158.00,294.00 Q 158.00,298.00 154.00,298.00 L 96.00,298.00 Q 92.00,298.00 92.00,294.00 L 92.00,236.00 Q 92.00,232.00 96.00,232.00 Z" />
    <path class="key-bg" d="M 166.00,162.00 L 224.00,162.00 Q 228.00,162.00 228.00,166.00 L 228.00,224.00 Q 228.00,228.00 224.00,228.00 L 166.00,228.00 Q 162.00,228.00 162.00,224.00 L 162.00,166.00 Q 162.00,162.00 166.00,162.00 Z" />
    <path class="key-bg" d="M 236.00,232.00 L 294.00,232.00 Q 298.00,232.00 298.00,236.00 L 298.00,294.00 Q 298.00,298.00 294.00,298.00 L 236.00,298.00 Q 232.00,298.00 232.00,294.00 L 232.00,236.00 Q 232.00,232.00 236.00,232.00 Z" />
  </g>
  <g>
    <text class="key-index" x="55.00" y="55.00" font-size="36">0</text>
    <text class="key-index" x="125.00" y="55.00" font-size="36">1</text>
    <text class="key-index" x="195.00" y="55.00" font-size="36">2</text>
    <text class="key-index" x="265.00" y="125.00" font-size="36">3</text>
    <text class="key-index" x="265.00" y="195.00" font-size="36">4</text>
    <text class="key-index" x="265.00" y="55.00" font-size="36">5</text>
    <text class="key-index" x="55.00" y="195.00" font-size="36">6</text>
    <text class="key-index" x="125.00" y="195.00" font-size="36">7</text>
    <text class="key-index" x="195.00" y="265.00" font-size="36">8</text>
    <text class="key-index" x="55.00" y="125.00" font-size="36">9</text>
    <text class="key-index" x="125.00" y="125.00" font-size="36">10</text>
    <text class="key-index" x="195.00" y="125.00" font-size="36">11</text>
    <text class="key-index" x="55.00" y="265.00" font-size="36">12</text>
    <text class="key-index" x="125.00" y="265.00" font-size="36">13</text>
    <text class="key-index" x="195.00" y="195.00" font-size="36">14</text>
    <text class="key-index" x="265.00" y="265.00" font-size="36">15</text>
  </g>
</svg>
