<svg xmlns="http://www.w3.org/2000/svg" viewBox="0 0 705.00 320.00">
  <style>
    .key-bg { fill: #f5f5f5; stroke: #d4d4d4; stroke-width: 1; }
    .key-index { fill: #171717; font-family: ui-monospace, SFMono-Regular, "SF Mono", Menlo, Consolas, "Liberation Mono", monospace; font-weight: 700; text-anchor: middle; dominant-baseline: central; }
    .key-part { font-family: system-ui, -apple-system, BlinkMacSystemFont, "Segoe UI", Roboto, sans-serif; text-anchor: middle; dominant-baseline: central; }
    @media (prefers-color-scheme: dark) {
      .key-bg { fill: #2a2a2a; stroke: #404040; }
      .key-index { fill: #e5e5e5; }
    }
  </style>
  <g>
    <path class="key-bg" d="M 26.00,22.00 L 84.00,22.00 Q 88.00,22.00 88.00,26.00 L 88.00,84.00 Q 88.00,88.00 84.00,88.00 L 26.00,88.00 Q 22.00,88.00 22.00,84.00 L 22.00,26.00 Q 22.00,22.00 26.00,22.00 Z" />
    <path class="key-bg" d="M 96.00,22.00 L 154.00,22.00 Q 158.00,22.00 158.00,26.00 L 158.00,84.00 Q 158.00,88.00 154.00,88.00 L 96.00,88.00 Q 92.00,88.00 92.00,84.00 L 92.00,26.00 Q 92.00,22.00 96.00,22.00 Z" />
    <path class="key-bg" d="M 166.00,22.00 L 224.00,22.00 Q 228.00,22.00 228.00,26.00 L 228.00,84.00 Q 228.00,88.00 224.00,88.00 L 166.00,88.00 Q 162.00,88.00 162.00,84.00 L 162.00,26.00 Q 162.00,22.00 166.00,22.00 Z" />
    <path class="key-bg" d="M 551.00,22.00 L 609.00,22.00 Q 613.00,22.00 613.00,26.00 L 613.00,84.00 Q 613.00,88.00 609.00,88.00 L 551.00,88.00 Q 547.00,88.00 547.00,84.00 L 547.00,26.00 Q 547.00,22.00 551.00,22.00 Z" />
    <path class="key-bg" d="M 78.50,162.00 L 136.50,162.00 Q 140.50,162.00 140.50,166.00 L 140.50,224.00 Q 140.50,228.00 136.50,228.00 L 78.50,228.00 Q 74.50,228.00 74.50,224.00 L 74.50,166.00 Q 74.50,162.00 78.50,162.00 Z" />
    <path class="key-bg" d="M 428.50,162.00 L 486.50,162.00 Q 490.50,162.00 490.50,166.00 L 490.50,224.00 Q 490.50,228.00 486.50,228.00 L 428.50,228.00 Q 424.50,228.00 424.50,224.00 L 424.50,166.00 Q 424.50,162.00 428.50,162.00 Z" />
    <path class="key-bg" d="M 498.50,162.00 L 556.50,162.00 Q 560.50,162.00 560.50,166.00 L 560.50,224.00 Q 560.50,228.00 556.50,228.00 L 498.50,228.00 Q 494.50,228.00 494.50,224.00 L 494.50,166.00 Q 494.50,162.00 498.50,162.00 Z" />
    <path class="key-bg" d="M 568.50,162.00 L 626.50,162.00 Q 630.50,162.00 630.50,166.00 L 630.50,224.00 Q 630.50,228.00 626.50,228.00 L 568.50,228.00 Q 564.50,228.00 564.50,224.00 L 564.50,166.00 Q 564.50,162.00 568.50,162.00 Z" />
    <path class="key-bg" d="M 621.00,22.00 L 679.00,22.00 Q 683.00,22.00 683.00,26.00 L 683.00,84.00 Q 683.00,88.00 679.00,88.00 L 621.00,88.00 Q 617.00,88.00 617.00,84.00 L 617.00,26.00 Q 617.00,22.00 621.00,22.00 Z" />
    <path class="key-bg" d="M 26.00,232.00 L 84.00,232.00 Q 88.00,232.00 88.00,236.00 L 88.00,294.00 Q 88.00,298.00 84.00,298.00 L 26.00,298.00 Q 22.00,298.00 22.00,294.00 L 22.00,236.00 Q 22.00,232.00 26.00,232.00 Z" />
    <path class="key-bg" d="M 96.00,232.00 L 154.00,232.00 Q 158.00,232.00 158.00,236.00 L 158.00,294.00 Q 158.00,298.00 154.00,298.00 L 96.00,298.00 Q 92.00,298.00 92.00,294.00 L 92.00,236.00 Q 92.00,232.00 96.00,232.00 Z" />
    <path class="key-bg" d="M 166.00,232.00 L 224.00,232.00 Q 228.00,232.00 228.00,236.00 L 228.00,294.00 Q 228.00,298.00 224.00,298.00 L 166.00,298.00 Q 162.00,298.00 162.00,294.00 L 162.00,236.00 Q 162.00,232.00 166.00,232.00 Z" />
    <path class="key-bg" d="M 376.00,232.00 L 434.00,232.00 Q 438.00,232.00 438.00,236.00 L 438.00,294.00 Q 438.00,298.00 434.00,298.00 L 376.00,298.00 Q 372.00,298.00 372.00,294.00 L 372.00,236.00 Q 372.00,232.00 376.00,232.00 Z" />
    <path class="key-bg" d="M 446.00,232.00 L 504.00,232.00 Q 508.00,232.00 508.00,236.00 L 508.00,294.00 Q 508.00,298.00 504.00,298.00 L 446.00,298.00 Q 442.00,298.00 442.00,294.00 L 442.00,236.00 Q 442.00,232.00 446.00,232.00 Z" />
    <path class="key-bg" d="M 516.00,232.00 L 574.00,232.00 Q 578.00,232.00 578.00,236.00 L 578.00,294.00 Q 578.00,298.00 574.00,298.00 L 516.00,298.00 Q 512.00,298.00 512.00,294.00 L 512.00,236.00 Q 512.00,232.00 516.00,232.00 Z" />
    <path class="key-bg" d="M 586.00,232.00 L 644.00,232.00 Q 648.00,232.00 648.00,236.00 L 648.00,294.00 Q 648.00,298.00 644.00,298.00 L 586.00,298.00 Q 582.00,298.00 582.00,294.00 L 582.00,236.00 Q 582.00,232.00 586.00,232.00 Z" />
  </g>
  <g>
    <text class="key-index" x="55.00" y="55.00" font-size="36">0</text>
    <text class="key-index" x="125.00" y="55.00" font-size="36">1</text>
    <text class="key-index" x="195.00" y="55.00" font-size="36">2</text>
    <text class="key-index" x="580.00" y="55.00" font-size="36">3</text>
    <text class="key-index" x="107.50" y="195.00" font-size="36">4</text>
    <text class="key-index" x="457.50" y="195.00" font-size="36">5</text>
    <text class="key-index" x="527.50" y="195.00" font-size="36">6</text>
    <text class="key-index" x="597.50" y="195.00" font-size="36">7</text>
    <text class="key-index" x="650.00" y="55.00" font-size="36">8</text>
    <text class="key-index" x="55.00" y="265.00" font-size="36">9</text>
    <text class="key-index" x="125.00" y="265.00" font-size="36">10</text>
    <text class="key-index" x="195.00" y="265.00" font-size="36">11</text>
    <text class="key-index" x="405.00" y="265.00" font-size="36">12</text>
    <text class="key-index" x="475.00" y="265.00" font-size="36">13</text>
    <text class="key-index" x="545.00" y="265.00" font-size="36">14</text>
    <text class="key-index" x="615.00" y="265.00" font-size="36">15</text>
  </g>
</svg>
