<svg xmlns="http://www.w3.org/2000/svg" viewBox="0 0 635.00 302.50">
  <style>
    .key-bg { fill: #f5f5f5; stroke: #d4d4d4; stroke-width: 1; }
    .key-index { fill: #171717; font-family: ui-monospace, SFMono-Regular, "SF Mono", Menlo, Consolas, "Liberation Mono", monospace; font-weight: 700; text-anchor: middle; dominant-baseline: central; }
    .key-part { font-family: system-ui, -apple-system, BlinkMacSystemFont, "Segoe UI", Roboto, sans-serif; text-anchor: middle; dominant-baseline: central; }
    @media (prefers-color-scheme: dark) {
      .key-bg { fill: #2a2a2a; stroke: #404040; }
      .key-index { fill: #e5e5e5; }
    }
  </style>
  <g>
    <path class="key-bg" d="M 26.00,22.00 L 84.00,22.00 Q 88.00,22.00 88.00,26.00 L 88.00,84.00 Q 88.00,88.00 84.00,88.00 L 26.00,88.00 Q 22.00,88.00 22.00,84.00 L 22.00,26.00 Q 22.00,22.00 26.00,22.00 Z" />
    <path class="key-bg" d="M 96.00,22.00 L 154.00,22.00 Q 158.00,22.00 158.00,26.00 L 158.00,84.00 Q 158.00,88.00 154.00,88.00 L 96.00,88.00 Q 92.00,88.00 92.00,84.00 L 92.00,26.00 Q 92.00,22.00 96.00,22.00 Z" />
    <path class="key-bg" d="M 166.00,22.00 L 224.00,22.00 Q 228.00,22.00 228.00,26.00 L 228.00,84.00 Q 228.00,88.00 224.00,88.00 L 166.00,88.00 Q 162.00,88.00 162.00,84.00 L 162.00,26.00 Q 162.00,22.00 166.00,22.00 Z" />
    <path class="key-bg" d="M 78.50,144.50 L 136.50,144.50 Q 140.50,144.50 140.50,148.50 L 140.50,206.50 Q 140.50,210.50 136.50,210.50 L 78.50,210.50 Q 74.50,210.50 74.50,206.50 L 74.50,148.50 Q 74.50,144.50 78.50,144.50 Z" />
    <path class="key-bg" d="M 26.00,214.50 L 84.00,214.50 Q 88.00,214.50 88.00,218.50 L 88.00,276.50 Q 88.00,280.50 84.00,280.50 L 26.00,280.50 Q 22.00,280.50 22.00,276.50 L 22.00,218.50 Q 22.00,214.50 26.00,214.50 Z" />
    <path class="key-bg" d="M 96.00,214.50 L 154.00,214.50 Q 158.00,214.50 158.00,218.50 L 158.00,276.50 Q 158.00,280.50 154.00,280.50 L 96.00,280.50 Q 92.00,280.50 92.00,276.50 L 92.00,218.50 Q 92.00,214.50 96.00,214.50 Z" />
    <path class="key-bg" d="M 166.00,214.50 L 224.00,214.50 Q 228.00,214.50 228.00,218.50 L 228.00,276.50 Q 228.00,280.50 224.00,280.50 L 166.00,280.50 Q 162.00,280.50 162.00,276.50 L 162.00,218.50 Q 162.00,214.50 166.00,214.50 Z" />
    <path class="key-bg" d="M 341.00,214.50 L 399.00,214.50 Q 403.00,214.50 403.00,218.50 L 403.00,276.50 Q 403.00,280.50 399.00,280.50 L 341.00,280.50 Q 337.00,280.50 337.00,276.50 L 337.00,218.50 Q 337.00,214.50 341.00,214.50 Z" />
    <path class="key-bg" d="M 411.00,214.50 L 469.00,214.50 Q 473.00,214.50 473.00,218.50 L 473.00,276.50 Q 473.00,280.50 469.00,280.50 L 411.00,280.50 Q 407.00,280.50 407.00,276.50 L 407.00,218.50 Q 407.00,214.50 411.00,214.50 Z" />
    <path class="key-bg" d="M 481.00,214.50 L 539.00,214.50 Q 543.00,214.50 543.00,218.50 L 543.00,276.50 Q 543.00,280.50 539.00,280.50 L 481.00,280.50 Q 477.00,280.50 477.00,276.50 L 477.00,218.50 Q 477.00,214.50 481.00,214.50 Z" />
    <path class="key-bg" d="M 551.00,214.50 L 609.00,214.50 Q 613.00,214.50 613.00,218.50 L 613.00,276.50 Q 613.00,280.50 609.00,280.50 L 551.00,280.50 Q 547.00,280.50 547.00,276.50 L 547.00,218.50 Q 547.00,214.50 551.00,214.50 Z" />
    <path class="key-bg" d="M 393.50,144.50 L 451.50,144.50 Q 455.50,144.50 455.50,148.50 L 455.50,206.50 Q 455.50,210.50 451.50,210.50 L 393.50,210.50 Q 389.50,210.50 389.50,206.50 L 389.50,148.50 Q 389.50,144.50 393.50,144.50 Z" />
    <path class="key-bg" d="M 463.50,144.50 L 521.50,144.50 Q 525.50,144.50 525.50,148.50 L 525.50,206.50 Q 525.50,210.50 521.50,210.50 L 463.50,210.50 Q 459.50,210.50 459.50,206.50 L 459.50,148.50 Q 459.50,144.50 463.50,144.50 Z" />
    <path class="key-bg" d="M 533.50,144.50 L 591.50,144.50 Q 595.50,144.50 595.50,148.50 L 595.50,206.50 Q 595.50,210.50 591.50,210.50 L 533.50,210.50 Q 529.50,210.50 529.50,206.50 L 529.50,148.50 Q 529.50,144.50 533.50,144.50 Z" />
    <path class="key-bg" d="M 533.50,22.00 L 556.50,22.00 Q 560.50,22.00 560.50,26.00 L 560.50,49.00 Q 560.50,53.00 556.50,53.00 L 533.50,53.00 Q 529.50,53.00 529.50,49.00 L 529.50,26.00 Q 529.50,22.00 533.50,22.00 Z" />
    <path class="key-bg" d="M 533.50,57.00 L 556.50,57.00 Q 560.50,57.00 560.50,61.00 L 560.50,84.00 Q 560.50,88.00 556.50,88.00 L 533.50,88.00 Q 529.50,88.00 529.50,84.00 L 529.50,61.00 Q 529.50,57.00 533.50,57.00 Z" />
  </g>
  <g>
    <text class="key-index" x="55.00" y="55.00" font-size="36">0</text>
    <text class="key-index" x="125.00" y="55.00" font-size="36">1</text>
    <text class="key-index" x="195.00" y="55.00" font-size="36">2</text>
    <text class="key-index" x="107.50" y="177.50" font-size="36">3</text>
    <text class="key-index" x="55.00" y="247.50" font-size="36">4</text>
    <text class="key-index" x="125.00" y="247.50" font-size="36">5</text>
    <text class="key-index" x="195.00" y="247.50" font-size="36">6</text>
    <text class="key-index" x="370.00" y="247.50" font-size="36">7</text>
    <text class="key-index" x="440.00" y="247.50" font-size="36">8</text>
    <text class="key-index" x="510.00" y="247.50" font-size="36">9</text>
    <text class="key-index" x="580.00" y="247.50" font-size="36">10</text>
    <text class="key-index" x="422.50" y="177.50" font-size="36">11</text>
    <text class="key-index" x="492.50" y="177.50" font-size="36">12</text>
    <text class="key-index" x="562.50" y="177.50" font-size="36">13</text>
    <text class="key-index" x="545.00" y="37.50" font-size="17">14</text>
    <text class="key-index" x="545.00" y="72.50" font-size="17">15</text>
  </g>
</svg>
